# File created by Blade
# Date/Time:  Thu Sep 25 17:14:50 2014
# Frame Rate: 120.000 fps
#------------------------------------------------------
:FULLY-SPECIFIED
:DEGREES
698
root -35.508215 31.401474 11.242876 205.079604 72.562862 189.172139
Spine -7.928737 -0.930679 3.518853
Head -4.088721 -15.657787 13.627917
LeftShoulder -15.166021 18.586043 29.407352
LeftArm 18.640449 -21.589454 -17.952056
LeftForeArm 13.935392 -0.000000 10.250863
LeftHand -27.367674 -0.000000 -1.410901
LeftHandThumb1 -26.253704 0.000000 33.147579
RightShoulder -24.135050 13.286029 -40.294126
RightArm -20.079646 14.172922 19.407425
RightForeArm -24.921391 0.000000 18.933116
RightHand -17.882212 -0.000000 -0.883549
RightHandThumb1 -24.326973 -0.000000 -32.862282
LeftUpLeg 2.184486 6.507612 -2.702136
LeftLeg -6.061133 -0.000000 0.000000
LeftFoot -20.951736 10.133006 -30.619676
LeftToeBase 4.775677 -0.000000 -0.000000
RightUpLeg -33.989340 -12.532348 10.263273
RightLeg -0.569374 -0.000000 0.000000
RightFoot 15.495902 12.791564 -0.043445
RightToeBase -1.134792 -0.000000 0.000000
699
root -35.574040 31.400473 11.246106 203.880724 72.669808 188.343491
Spine -7.952208 -1.105767 2.825252
Head -3.859148 -15.883568 14.241028
LeftShoulder -15.210220 18.768079 29.652558
LeftArm 18.559240 -21.685997 -17.851757
LeftForeArm 13.943755 -0.000000 10.255634
LeftHand -26.795578 -0.000000 -1.076219
LeftHandThumb1 -26.253704 0.000000 33.147579
RightShoulder -24.250960 13.120755 -40.058114
RightArm -20.207875 14.151928 19.616108
RightForeArm -24.703396 -0.000000 18.959306
RightHand -17.945237 -0.000000 -0.647698
RightHandThumb1 -24.326973 -0.000000 -32.862282
LeftUpLeg 2.522409 6.533457 -2.954472
LeftLeg -6.154417 -0.000000 0.000000
LeftFoot -20.783724 10.091210 -30.679563
LeftToeBase 4.676467 -0.000000 -0.000000
RightUpLeg -33.640308 -13.042604 10.227645
RightLeg -0.915354 -0.000000 0.000000
RightFoot 15.966086 13.138676 0.199241
RightToeBase -1.009986 -0.000000 0.000000
700
root -35.632659 31.400504 11.253566 202.687057 72.730086 187.552715
Spine -7.918509 -1.341347 2.169513
Head -3.631623 -16.111660 14.785540
LeftShoulder -15.171666 18.935078 29.845500
LeftArm 18.347733 -21.737740 -17.613441
LeftForeArm 14.021722 -0.000000 10.217651
LeftHand -26.956771 -0.000000 -1.328392
LeftHandThumb1 -26.253704 0.000000 33.147579
RightShoulder -24.263064 12.945004 -39.801666
RightArm -20.408648 14.256033 19.832592
RightForeArm -24.397307 -0.000000 19.011446
RightHand -17.683154 -0.000000 -0.732421
RightHandThumb1 -24.326973 -0.000000 -32.862282
LeftUpLeg 2.867985 6.647018 -3.171354
LeftLeg -6.189053 -0.000000 0.000000
LeftFoot -20.635039 10.015424 -30.670667
LeftToeBase 4.719187 -0.000000 -0.000000
RightUpLeg -33.235682 -13.497333 10.145001
RightLeg -1.260712 -0.000000 0.000000
RightFoot 16.418042 13.297169 0.627248
RightToeBase -0.683827 -0.000000 0.000000
701
root -35.697308 31.403385 11.259714 201.530514 72.776406 186.752620
Spine -7.915129 -1.504783 1.534750
Head -3.404221 -16.410093 15.267727
LeftShoulder -15.168863 19.064473 30.019247
LeftArm 18.274185 -21.839188 -17.466538
LeftForeArm 13.994202 -0.000000 10.229309
LeftHand -26.896675 -0.000000 -1.395099
LeftHandThumb1 -26.253704 0.000000 33.147579
RightShoulder -24.340801 12.862113 -39.592110
RightArm -20.601098 14.170110 20.035538
RightForeArm -23.935967 0.000000 19.056251
RightHand -17.948517 -0.000000 -0.897425
RightHandThumb1 -24.326973 -0.000000 -32.862282
LeftUpLeg 3.107637 6.838411 -3.408814
LeftLeg -6.138434 -0.000000 0.000000
LeftFoot -20.490444 9.960935 -30.589688
LeftToeBase 4.708318 -0.000000 -0.000000
RightUpLeg -32.901549 -13.839172 9.990468
RightLeg -1.497367 -0.000000 0.000000
RightFoot 17.015173 13.377383 1.123451
RightToeBase -1.062674 -0.000000 0.000000
702
root -35.756084 31.406722 11.265474 200.408441 72.805396 186.007923
Spine -7.878326 -1.696617 0.954509
Head -3.165314 -16.634127 15.624626
LeftShoulder -15.170003 19.176286 30.126751
LeftArm 18.128657 -21.958513 -17.282723
LeftForeArm 13.948648 0.000000 10.271680
LeftHand -26.843823 -0.000000 -1.310542
LeftHandThumb1 -26.253704 0.000000 33.147579
RightShoulder -24.415416 12.604457 -39.356040
RightArm -20.635535 14.651272 20.232611
RightForeArm -23.911245 -0.000000 18.998444
RightHand -17.776873 -0.000000 -0.825545
RightHandThumb1 -24.326973 -0.000000 -32.862282
LeftUpLeg 3.357236 7.094972 -3.626257
LeftLeg -6.057932 -0.000000 0.000000
LeftFoot -20.327555 9.901235 -30.466002
LeftToeBase 4.562138 -0.000000 -0.000000
RightUpLeg -32.528916 -14.143556 9.805976
RightLeg -1.753914 -0.000000 0.000000
RightFoot 17.459608 13.522948 1.207131
RightToeBase -1.133881 -0.000000 0.000000
703
root -35.814765 31.413318 11.273991 199.400726 72.783427 185.340630
Spine -7.892392 -1.867668 0.444555
Head -2.857916 -16.894388 15.868879
LeftShoulder -15.058296 19.257234 30.204717
LeftArm 17.949386 -21.956946 -17.010214
LeftForeArm 13.795385 -0.000000 10.309487
LeftHand -26.896026 0.000000 -1.310157
LeftHandThumb1 -26.253704 0.000000 33.147579
RightShoulder -24.485278 12.538256 -39.195087
RightArm -20.789108 14.463326 20.459851
RightForeArm -23.411204 -0.000000 19.077813
RightHand -16.901345 -0.000000 -0.734111
RightHandThumb1 -24.326973 -0.000000 -32.862282
LeftUpLeg 3.551363 7.341361 -3.813001
LeftLeg -5.964487 -0.000000 0.000000
LeftFoot -20.178632 9.864031 -30.348446
LeftToeBase 4.462743 -0.000000 -0.000000
RightUpLeg -32.237590 -14.485662 9.678309
RightLeg -1.937529 -0.000000 0.000000
RightFoot 17.894890 13.686531 1.308703
RightToeBase -1.265842 -0.000000 0.000000
